<svg xmlns="http://www.w3.org/2000/svg" width="27" height="22" viewBox="0 0 27 22"><path d="M27,2.6a11.07,11.07,0,0,1-3.18.88A5.57,5.57,0,0,0,26.25.4a11.07,11.07,0,0,1-3.52,1.35A5.55,5.55,0,0,0,13.3,6.82,15.72,15.72,0,0,1,1.88,1,5.57,5.57,0,0,0,3.59,8.43a5.51,5.51,0,0,1-2.51-.7v.07a5.56,5.56,0,0,0,4.44,5.45,5.52,5.52,0,0,1-1.46.19,5.45,5.45,0,0,1-1-.1A5.55,5.55,0,0,0,8.2,17.2a11.1,11.1,0,0,1-6.88,2.38A11.07,11.07,0,0,1,0,19.5,15.65,15.65,0,0,0,8.49,22c10.19,0,15.76-8.46,15.76-15.8,0-.24,0-.48,0-.72A11.25,11.25,0,0,0,27,2.6" fill="#fff"/></svg>