<svg xmlns="http://www.w3.org/2000/svg" width="23" height="23" viewBox="0 0 23 23"><path d="M20.7,0H2.3A2.3,2.3,0,0,0,0,2.3V20.7A2.3,2.3,0,0,0,2.3,23H20.7A2.3,2.3,0,0,0,23,20.7V2.3A2.3,2.3,0,0,0,20.7,0ZM19.35,7.64q-.11,2.43-3.39,6.64-3.39,4.4-5.74,4.4-1.45,0-2.46-2.68L6.43,11.09Q5.68,8.4,4.83,8.4a5.14,5.14,0,0,0-1.3.78l-.78-1Q4,7.1,5.17,6A5.5,5.5,0,0,1,7.63,4.52Q9.57,4.34,10,7.18q.48,3.06.67,3.81.56,2.54,1.23,2.54.52,0,1.57-1.65a6.49,6.49,0,0,0,1.12-2.51q.15-1.42-1.12-1.42a3.12,3.12,0,0,0-1.23.27q1.23-4,4.68-3.9Q19.5,4.39,19.35,7.64Z" fill="#fff"/></svg>