<svg xmlns="http://www.w3.org/2000/svg" xmlns:xlink="http://www.w3.org/1999/xlink" width="19" height="20" viewBox="0 0 19 20"><path d="M17.58,2.84,13.38.38a2.81,2.81,0,0,0-2.84,0L1.41,5.77A2.88,2.88,0,0,0,0,8.25v3.52a2.88,2.88,0,0,0,1.41,2.48l9.14,5.37a2.81,2.81,0,0,0,2.84,0l4.2-2.46A2.88,2.88,0,0,0,19,14.68V5.32A2.88,2.88,0,0,0,17.58,2.84Zm-10,12.82V11.11l9.82-5.87s0,.05,0,.08V9.84l-2.9,1.74ZM11.35,1.79a1.22,1.22,0,0,1,1.23,0l4.2,2.45.09.06L7,10.17,2.12,7.23l.09-.06Zm-9.75,10V8.25s0,0,0-.07l4.9,2.93v4.26L2.21,12.84A1.25,1.25,0,0,1,1.6,11.77Zm6.74,4.68,3.08-1.82v3.62l-.08,0Zm8.44-.69-4.2,2.46-.08,0V14L15,12.51l2.38-1.4v3.57A1.25,1.25,0,0,1,16.78,15.76Z" fill="#fff"/></svg>