<svg xmlns="http://www.w3.org/2000/svg" width="89" height="69" viewBox="0 0 89 69"><title>fonds</title><path d="M87.81,31.87H1.19a1.19,1.19,0,0,1-1.08-.69,1.17,1.17,0,0,1,.18-1.26L17.21,10.43a1.19,1.19,0,0,1,.9-.41h39.1a1.18,1.18,0,1,1,0,2.36H18.65L3.78,29.51H85.22L74.64,17.32a1.17,1.17,0,0,1,.13-1.66,1.19,1.19,0,0,1,1.68.12L88.71,29.92a1.17,1.17,0,0,1,.18,1.26A1.19,1.19,0,0,1,87.81,31.87Z" style="fill:#807fc5"/><path d="M81.05,69H7.95a1.18,1.18,0,0,1-1.19-1.18V30.69a1.18,1.18,0,0,1,1.19-1.18h73.1a1.18,1.18,0,0,1,1.19,1.18V67.82A1.18,1.18,0,0,1,81.05,69ZM9.14,66.64H79.86V31.87H9.14Z" style="fill:#807fc5"/><path d="M50.6,69H38.4a1.18,1.18,0,0,1-1.19-1.18V43.46a1.18,1.18,0,0,1,1.19-1.18H50.6a1.18,1.18,0,0,1,1.19,1.18V67.82A1.18,1.18,0,0,1,50.6,69Zm-11-2.36h9.82v-22H39.59Z" style="fill:#807fc5"/><path d="M29.37,56.82H17.17A1.18,1.18,0,0,1,16,55.64V43.46a1.18,1.18,0,0,1,1.19-1.18h12.2a1.18,1.18,0,0,1,1.19,1.18V55.64A1.18,1.18,0,0,1,29.37,56.82Zm-11-2.36h9.82V44.64H18.36Z" style="fill:#807fc5"/><path d="M73.33,56.82H61.12a1.18,1.18,0,0,1-1.19-1.18V43.46a1.18,1.18,0,0,1,1.19-1.18h12.2a1.18,1.18,0,0,1,1.19,1.18V55.64A1.18,1.18,0,0,1,73.33,56.82Zm-11-2.36h9.82V44.64H62.31Z" style="fill:#807fc5"/><path d="M78.9,9.93a1.19,1.19,0,0,1-.62-.17l-11.9-7.2-11.9,7.2a1.19,1.19,0,0,1-1.63-.39,1.17,1.17,0,0,1,.4-1.62L65.76.17A1.2,1.2,0,0,1,67,.17L79.52,7.75a1.17,1.17,0,0,1,.4,1.62A1.19,1.19,0,0,1,78.9,9.93Z" style="fill:#807fc5"/><path d="M75.54,25.73H57.21A1.18,1.18,0,0,1,56,24.56V6.72a1.19,1.19,0,0,1,2.38,0V23.38h16V6.72a1.19,1.19,0,0,1,2.38,0V24.56A1.18,1.18,0,0,1,75.54,25.73Z" style="fill:#807fc5"/><path d="M70.74,19.32H62a1.18,1.18,0,0,1-1.19-1.18V9.48A1.18,1.18,0,0,1,62,8.31h8.73a1.18,1.18,0,0,1,1.19,1.18v8.65A1.18,1.18,0,0,1,70.74,19.32ZM63.2,17h6.35V10.66H63.2Z" style="fill:#807fc5"/><path d="M34.09,12.38H22a1.18,1.18,0,0,1-1.19-1.18V3A1.18,1.18,0,0,1,22,1.85H34.09A1.18,1.18,0,0,1,35.28,3V11.2A1.18,1.18,0,0,1,34.09,12.38ZM23.19,10h9.7V4.21h-9.7Z" style="fill:#807fc5"/><path d="M87,69H2a1.18,1.18,0,1,1,0-2.36H87A1.18,1.18,0,1,1,87,69Z" style="fill:#807fc5"/></svg>