<svg xmlns="http://www.w3.org/2000/svg" width="10" height="12" viewBox="0 0 10 12"><title>input-euro</title><path d="M3.46,4.83q0,.38,0,.84t0,1H7.58V7.76h-4a4.21,4.21,0,0,0,.93,2.15,2.84,2.84,0,0,0,2.17.83A6,6,0,0,0,9,10.3,2.67,2.67,0,0,0,9.52,10l.48,1.3a2.86,2.86,0,0,0-.57.17l-.58.22a4.35,4.35,0,0,1-.59.15A9,9,0,0,1,6.46,12a5.27,5.27,0,0,1-1.83-.3,4.26,4.26,0,0,1-1.42-.85A5.39,5.39,0,0,1,1.66,7.76H0V6.63H1.54c0-.08,0-.17,0-.25V6.11a10,10,0,0,1,.08-1.28H.25V3.7H1.82A4.93,4.93,0,0,1,3.61,1,5.75,5.75,0,0,1,7.17,0,6.22,6.22,0,0,1,9.24.34a3.8,3.8,0,0,0,.5.15l-.42,1.3a4.14,4.14,0,0,0-.9-.32,7.6,7.6,0,0,0-1.49-.14,4.34,4.34,0,0,0-1.26.15,2.93,2.93,0,0,0-.89.45A3.31,3.31,0,0,0,3.64,3.7H7.85V4.83Z" style="fill:#199a64"/></svg>