<svg xmlns="http://www.w3.org/2000/svg" xmlns:xlink="http://www.w3.org/1999/xlink" width="222" height="43" viewBox="0 0 222 43"><defs><linearGradient id="a" x1="19.75" x2="19.75" y2="41.08" gradientUnits="userSpaceOnUse"><stop offset="0" stop-color="#3fc6f1"/><stop offset="1" stop-color="#49b879"/></linearGradient></defs><title>logo-white</title><path d="M70.44,14.83a8,8,0,0,1,3.16,3.4,12,12,0,0,1,1.18,5.59A12.85,12.85,0,0,1,73.34,30a10.27,10.27,0,0,1-4,4.17,11.86,11.86,0,0,1-6,1.48,26.25,26.25,0,0,1-3.85-.3,32.28,32.28,0,0,1-3.52-.7A6.66,6.66,0,0,1,54.1,34V3.7h6v8.61L59.94,16a9,9,0,0,1,2.5-1.64,9.58,9.58,0,0,1,8,.46Zm-3,4.69a3.88,3.88,0,0,0-3.19-1.34,6.59,6.59,0,0,0-2.29.41,5.89,5.89,0,0,0-1.83,1V30.79q.69.7,3.38.7a4.16,4.16,0,0,0,2.59-.87,5.72,5.72,0,0,0,1.79-2.52,10.74,10.74,0,0,0,.65-3.94Q68.5,20.86,67.41,19.52Z" style="fill:#fff"/><path d="M92,13.72v6.19a3.6,3.6,0,0,0-1-.51,5.43,5.43,0,0,0-1.62-.19,6.73,6.73,0,0,0-4.88,2.09V35.62h-6V13.73h5.32l.27,3.21a5.65,5.65,0,0,1,1.43-1.55,8.34,8.34,0,0,1,2.21-1.21,7.27,7.27,0,0,1,2.56-.47Z" style="fill:#fff"/><path d="M95.18,5.47A4,4,0,0,1,96.6,4.15a3.79,3.79,0,0,1,1.86-.49,3.46,3.46,0,0,1,2.52.91,3.13,3.13,0,0,1,.94,2.35,3.3,3.3,0,0,1-.53,1.8,3.87,3.87,0,0,1-1.4,1.32,3.77,3.77,0,0,1-1.87.49,3.68,3.68,0,0,1-1.77-.42A3.23,3.23,0,0,1,95.1,8.95a3.16,3.16,0,0,1-.46-1.69A3.21,3.21,0,0,1,95.18,5.47Zm6.18,8.26V35.62h-6V13.73Z" style="fill:#fff"/><path d="M126,14V43h-6V38.11l.12-4.74a9.14,9.14,0,0,1-10.47,1.11A8.16,8.16,0,0,1,106.53,31a12.35,12.35,0,0,1-1.18-5.65,13,13,0,0,1,1.39-6.14,9.91,9.91,0,0,1,3.92-4.08,11.55,11.55,0,0,1,5.83-1.44,14.56,14.56,0,0,1,2.86.29,12.78,12.78,0,0,1,2.36.67Zm-13.3,15.6A3.85,3.85,0,0,0,115.91,31a8.19,8.19,0,0,0,2.29-.32,6.85,6.85,0,0,0,1.83-.8V18.64a3,3,0,0,0-1.36-.53,13.18,13.18,0,0,0-2-.13,4.45,4.45,0,0,0-2.61.79,5.16,5.16,0,0,0-1.78,2.37,10.31,10.31,0,0,0-.64,3.88Q111.63,28.25,112.73,29.61Z" style="fill:#fff"/><path d="M143.82,14.06a6.94,6.94,0,0,1,2.07.78l-.67,3.46a6,6,0,0,0-2.07-1,10.83,10.83,0,0,0-2.84-.33,6.13,6.13,0,0,0-3.08.81,5.91,5.91,0,0,0-2.31,2.55,9.55,9.55,0,0,0-.88,4.36,10,10,0,0,0,.81,4.19A6.11,6.11,0,0,0,137,31.54a5.67,5.67,0,0,0,3.15.91,11.68,11.68,0,0,0,3-.38,9.36,9.36,0,0,0,2.27-.85l.86,2.34a7.34,7.34,0,0,1-2.84,1.51,13,13,0,0,1-3.88.57,9.39,9.39,0,0,1-5.18-1.39,8.89,8.89,0,0,1-3.31-3.83,12.93,12.93,0,0,1-1.13-5.52,13.24,13.24,0,0,1,1.2-5.73,9.21,9.21,0,0,1,3.58-4,10.9,10.9,0,0,1,5.8-1.46A13.85,13.85,0,0,1,143.82,14.06Z" style="fill:#fff"/><path d="M164.89,14.61A5.21,5.21,0,0,1,167,17.43a15.77,15.77,0,0,1,.66,5V35.62H163.4V22.23a9.25,9.25,0,0,0-.37-2.92,2.73,2.73,0,0,0-1.31-1.59,5.53,5.53,0,0,0-2.58-.5,7.25,7.25,0,0,0-2.65.6,10.38,10.38,0,0,0-2.75,1.63V35.62h-4.22V3.91h4.22v9.16l-.19,3.11a13.73,13.73,0,0,1,3.54-1.75,12.58,12.58,0,0,1,4.1-.73A6.79,6.79,0,0,1,164.89,14.61Z" style="fill:#fff"/><path d="M184.76,14.27a4.82,4.82,0,0,1,2.63,2,7.81,7.81,0,0,1,.94,4.18V35.64h-1.73a5.54,5.54,0,0,1-1.31-.12,1.11,1.11,0,0,1-.69-.54,2.75,2.75,0,0,1-.25-1.34v-.15A8.08,8.08,0,0,1,181.72,35a9.85,9.85,0,0,1-3.5.63,7.77,7.77,0,0,1-3.47-.75,5.64,5.64,0,0,1-2.38-2.14,6.13,6.13,0,0,1-.85-3.27,5.87,5.87,0,0,1,1.12-3.59,7.18,7.18,0,0,1,3.14-2.34,18.88,18.88,0,0,1,4-1.07,27.63,27.63,0,0,1,4.29-.36v-2a3.58,3.58,0,0,0-.49-2.07,2.43,2.43,0,0,0-1.47-.93,11.88,11.88,0,0,0-2.71-.24,11.51,11.51,0,0,0-2.12.23,18.09,18.09,0,0,0-2.25.57,7.25,7.25,0,0,0-1.55.66l-1-2.63a11.29,11.29,0,0,1,1.81-.79,24,24,0,0,1,3-.85,14.87,14.87,0,0,1,3.24-.37A13.59,13.59,0,0,1,184.76,14.27Zm-3.4,18a9.63,9.63,0,0,0,1.76-.64,3.36,3.36,0,0,0,1-.64V24.81a21.09,21.09,0,0,0-3.16.27,10.16,10.16,0,0,0-2.83.79,5.3,5.3,0,0,0-1.81,1.31,2.9,2.9,0,0,0-.63,1.94q0,3.38,3.78,3.38A7.32,7.32,0,0,0,181.37,32.22Z" style="fill:#fff"/><path d="M193.6,5.66a3.28,3.28,0,0,1,1.18-1.09,3,3,0,0,1,1.48-.4,2.65,2.65,0,0,1,2,.73,2.58,2.58,0,0,1,.7,1.86,2.79,2.79,0,0,1-.44,1.54,3.1,3.1,0,0,1-1.15,1.08,3.14,3.14,0,0,1-1.52.38,2.89,2.89,0,0,1-1.34-.32,2.51,2.51,0,0,1-1.36-2.28A2.69,2.69,0,0,1,193.6,5.66Zm4.58,8.07V35.62H194V13.73Z" style="fill:#fff"/><path d="M207.85,13.73l0,2.57a17.69,17.69,0,0,1,3.72-1.79,12.47,12.47,0,0,1,4.23-.8,6.8,6.8,0,0,1,3.61.83,4.78,4.78,0,0,1,2,2.67,16.14,16.14,0,0,1,.61,5V35.62h-4.22V22.22a11.43,11.43,0,0,0-.29-2.87,2.7,2.7,0,0,0-1.06-1.59,3.93,3.93,0,0,0-2.23-.53h-.52a7.08,7.08,0,0,0-2.64.61,11,11,0,0,0-2.74,1.62V35.62h-4.22V13.73Z" style="fill:#fff"/><path d="M36.55,5.83l-8.73-5a5.9,5.9,0,0,0-5.9,0l-19,11.06A5.9,5.9,0,0,0,0,16.94v7.23a5.9,5.9,0,0,0,2.93,5.09l19,11a5.9,5.9,0,0,0,5.9,0l8.74-5a5.9,5.9,0,0,0,2.94-5.1V10.92A5.9,5.9,0,0,0,36.55,5.83ZM15.74,32.15V22.82L36.16,10.76c0,.05,0,.11,0,.16V20.2l-6,3.57ZM23.59,3.67a2.56,2.56,0,0,1,2.57,0l8.73,5,.18.12L14.63,20.9l-10.21-6,.18-.12ZM3.33,24.17V16.94s0-.1,0-.15l10.18,6v8.74L4.6,26.38A2.56,2.56,0,0,1,3.33,24.17Zm14,9.61L23.76,30v7.44l-.17-.08Zm17.54-1.42-8.74,5L26,37.5V28.81l5.25-3.11,4.94-2.88v7.33A2.56,2.56,0,0,1,34.89,32.37Z" style="fill:url(#a)"/></svg>